<svg xmlns="http://www.w3.org/2000/svg" viewBox="0 0 32 32" fill="none">
  <defs>
    <linearGradient id="sf" x1="2" y1="2" x2="31" y2="31" gradientUnits="userSpaceOnUse">
      <stop stop-color="#071e22"/>
      <stop offset="0.6" stop-color="#0f454a"/>
      <stop offset="1" stop-color="#156e75"/>
    </linearGradient>
    <linearGradient id="sl" x1="16" y1="7" x2="16" y2="17" gradientUnits="userSpaceOnUse">
      <stop stop-color="#f0fdff"/>
      <stop offset="1" stop-color="#d4f4f7"/>
    </linearGradient>
    <clipPath id="sfc">
      <rect width="32" height="32" rx="7"/>
    </clipPath>
  </defs>
  <rect width="32" height="32" rx="7" fill="url(#sf)"/>
  <g clip-path="url(#sfc)">
    <circle cx="16" cy="21" r="4.3" stroke="#9fe8e4" stroke-opacity="0.34" stroke-width="0.45" fill="none"/>
    <circle cx="16" cy="21" r="8.2" stroke="#b4f0ec" stroke-opacity="0.4" stroke-width="0.42" fill="none"/>
    <circle cx="16" cy="21" r="12" stroke="#c9f7f4" stroke-opacity="0.34" stroke-width="0.38" fill="none"/>
  </g>
  <g transform="translate(16 13.5)">
    <ellipse cx="0" cy="-4.6" rx="2.9" ry="6.6" fill="url(#sl)" stroke="#6ec9cf" stroke-opacity="0.6" stroke-width="0.22" transform="rotate(0)"/>
    <ellipse cx="0" cy="-4.6" rx="2.9" ry="6.6" fill="url(#sl)" stroke="#6ec9cf" stroke-opacity="0.6" stroke-width="0.22" transform="rotate(60)"/>
    <ellipse cx="0" cy="-4.6" rx="2.9" ry="6.6" fill="url(#sl)" stroke="#6ec9cf" stroke-opacity="0.6" stroke-width="0.22" transform="rotate(120)"/>
    <ellipse cx="0" cy="-4.6" rx="2.9" ry="6.6" fill="url(#sl)" stroke="#6ec9cf" stroke-opacity="0.6" stroke-width="0.22" transform="rotate(180)"/>
    <ellipse cx="0" cy="-4.6" rx="2.9" ry="6.6" fill="url(#sl)" stroke="#6ec9cf" stroke-opacity="0.6" stroke-width="0.22" transform="rotate(240)"/>
    <ellipse cx="0" cy="-4.6" rx="2.9" ry="6.6" fill="url(#sl)" stroke="#6ec9cf" stroke-opacity="0.6" stroke-width="0.22" transform="rotate(300)"/>
  </g>
  <circle cx="16" cy="13.5" r="2.5" fill="#ffffff" stroke="#5bc4cc" stroke-opacity="0.7" stroke-width="0.25"/>
  <circle cx="16" cy="13.5" r="1.1" fill="#0a4a50" fill-opacity="0.35"/>
</svg>
