<svg xmlns="http://www.w3.org/2000/svg" viewBox="0 0 192 192" fill="none" aria-hidden="true">
  <defs>
    <linearGradient id="sci192-pond" x1="14" y1="12" x2="182" y2="184" gradientUnits="userSpaceOnUse">
      <stop stop-color="#071e22"/>
      <stop offset="0.55" stop-color="#0f454a"/>
      <stop offset="1" stop-color="#156e75"/>
    </linearGradient>
    <linearGradient id="sci192-petal" x1="96" y1="40" x2="96" y2="92" gradientUnits="userSpaceOnUse">
      <stop stop-color="#f0fdff"/>
      <stop offset="1" stop-color="#d4f4f7"/>
    </linearGradient>
    <linearGradient id="sci192-core" x1="96" y1="68" x2="96" y2="88" gradientUnits="userSpaceOnUse">
      <stop stop-color="#ffffff"/>
      <stop offset="1" stop-color="#e8fbfc"/>
    </linearGradient>
    <clipPath id="sci192-clip">
      <rect width="192" height="192" rx="42"/>
    </clipPath>
  </defs>
  <rect width="192" height="192" rx="42" fill="url(#sci192-pond)"/>
  <g clip-path="url(#sci192-clip)">
    <circle cx="96" cy="127" r="26" stroke="#8ae0dc" stroke-opacity="0.28" stroke-width="2.4" fill="none"/>
    <circle cx="96" cy="127" r="49" stroke="#9fe8e4" stroke-opacity="0.36" stroke-width="2.2" fill="none"/>
    <circle cx="96" cy="127" r="72" stroke="#b4f0ec" stroke-opacity="0.44" stroke-width="2" fill="none"/>
    <circle cx="96" cy="127" r="95" stroke="#c9f7f4" stroke-opacity="0.38" stroke-width="1.85" fill="none"/>
  </g>
  <g transform="translate(96 80)">
    <ellipse cx="0" cy="-27" rx="17" ry="40" fill="url(#sci192-petal)" stroke="#6ec9cf" stroke-opacity="0.65" stroke-width="1.05" transform="rotate(0)"/>
    <ellipse cx="0" cy="-27" rx="17" ry="40" fill="url(#sci192-petal)" stroke="#6ec9cf" stroke-opacity="0.65" stroke-width="1.05" transform="rotate(60)"/>
    <ellipse cx="0" cy="-27" rx="17" ry="40" fill="url(#sci192-petal)" stroke="#6ec9cf" stroke-opacity="0.65" stroke-width="1.05" transform="rotate(120)"/>
    <ellipse cx="0" cy="-27" rx="17" ry="40" fill="url(#sci192-petal)" stroke="#6ec9cf" stroke-opacity="0.65" stroke-width="1.05" transform="rotate(180)"/>
    <ellipse cx="0" cy="-27" rx="17" ry="40" fill="url(#sci192-petal)" stroke="#6ec9cf" stroke-opacity="0.65" stroke-width="1.05" transform="rotate(240)"/>
    <ellipse cx="0" cy="-27" rx="17" ry="40" fill="url(#sci192-petal)" stroke="#6ec9cf" stroke-opacity="0.65" stroke-width="1.05" transform="rotate(300)"/>
  </g>
  <circle cx="96" cy="80" r="15" fill="url(#sci192-core)" stroke="#5bc4cc" stroke-opacity="0.75" stroke-width="1.25"/>
  <circle cx="96" cy="80" r="6.9" fill="#0a4a50" fill-opacity="0.35"/>
</svg>
